<?xml version="1.0" encoding="UTF-8"?>
<svg xmlns="http://www.w3.org/2000/svg" xmlns:xlink="http://www.w3.org/1999/xlink" viewBox="0 0 45 45" width="45px" height="45px">
<g id="surface82079129">
<path style=" stroke:none;fill-rule:nonzero;fill:rgb(4.313726%,14.117648%,67.843139%);fill-opacity:1;" d="M 36.898438 3.601562 L 8.101562 3.601562 C 5.617188 3.601562 3.601562 5.617188 3.601562 8.101562 L 3.601562 36.898438 C 3.601562 39.382812 5.617188 41.398438 8.101562 41.398438 L 36.898438 41.398438 C 39.382812 41.398438 41.398438 39.382812 41.398438 36.898438 L 41.398438 8.101562 C 41.398438 5.617188 39.382812 3.601562 36.898438 3.601562 Z M 15.300781 18 L 15.300781 35.101562 L 9.898438 35.101562 L 9.898438 18 Z M 9.898438 13.023438 C 9.898438 11.761719 10.980469 10.800781 12.601562 10.800781 C 14.21875 10.800781 15.238281 11.761719 15.300781 13.023438 C 15.300781 14.28125 14.292969 15.300781 12.601562 15.300781 C 10.980469 15.300781 9.898438 14.28125 9.898438 13.023438 Z M 35.101562 35.101562 L 29.699219 35.101562 C 29.699219 35.101562 29.699219 26.765625 29.699219 26.101562 C 29.699219 24.300781 28.800781 22.5 26.550781 22.464844 L 26.476562 22.464844 C 24.300781 22.464844 23.398438 24.316406 23.398438 26.101562 C 23.398438 26.917969 23.398438 35.101562 23.398438 35.101562 L 18 35.101562 L 18 18 L 23.398438 18 L 23.398438 20.304688 C 23.398438 20.304688 25.136719 18 28.628906 18 C 32.203125 18 35.101562 20.457031 35.101562 25.433594 Z M 35.101562 35.101562 "/>
</g>
</svg>
