<svg width="19" height="18" viewBox="0 0 19 18" fill="none" xmlns="http://www.w3.org/2000/svg">
<path d="M5.11005 17.6293H0.820048V6.48933H5.11005V17.6293ZM2.96005 4.76933H2.93005C1.63005 4.76933 0.800049 3.75934 0.800049 2.63934C0.800049 1.51934 1.66005 0.569336 2.98005 0.569336C4.30005 0.569336 5.11005 1.52933 5.14005 2.66933C5.14005 3.77933 4.30005 4.76933 2.96005 4.76933V4.76933ZM12.83 9.90934C11.88 9.90934 11.12 10.6793 11.12 11.6193V17.6193H6.83005C6.83005 17.6193 6.88005 7.32934 6.83005 6.47934H11.12V7.74934C11.12 7.74934 12.45 6.50934 14.5 6.50934C17.04 6.50934 18.84 8.34934 18.84 11.9093V17.6093H14.55V11.6093C14.55 10.6593 13.78 9.89934 12.84 9.89934L12.83 9.90934Z" fill="black"/>
</svg>
