<svg version="1.1" id="Layer_1" xmlns="http://www.w3.org/2000/svg" xmlns:xlink="http://www.w3.org/1999/xlink" x="0px" y="0px" viewBox="0 0 2728 456" style="enable-background:new 0 0 2728 456;" xml:space="preserve" class="animate-svg">
<style type="text/css">.animate-svg path{-webkit-animation:draw ease-in-out forwards;animation:draw ease-in-out forwards;stroke:#000}.animate-svg{-webkit-animation:fillopacity 3 ease-in-out forwards;animation:fillopacity 3s ease-in-out forwards}@-webkit-keyframes draw{100%{stroke-dashoffset:0}}@keyframes draw{100%{stroke-dashoffset:0}}@-webkit-keyframes fillopacity{0%,70%{fill-opacity:0;stroke-width:0.5%}100%{fill-opacity:1;stroke-width:0}}@keyframes fillopacity{0%,70%{fill-opacity:0;stroke-width:0.5%}100%{fill-opacity:1;stroke-width:0}}
	.st0{fill:#16085E;}
	.st1{fill:#0000FF;}
</style>
<g>
	<g>
		<path class="st0" d="M227.4,346.1c-59.1,0-116.9-51.3-116.9-117.7c0-66,57-118.3,116.7-118.3c32.3,0,62.3,15.3,85.4,38.4l30-40.7
			c-32.3-31.5-71.7-49.7-114.4-50.3c-92.6,0-170,77.9-170,170.6c0,93,77.4,169.8,170.8,169.8c49,0,85.2-21.5,113.6-49.4l-29.8-41.7
			C290.1,329.4,261.1,346.1,227.4,346.1z" style="stroke-dasharray: 1451.06; stroke-dashoffset: 1451.06; animation-delay: 0s; animation-duration: 1.59143s;"></path>
		<path class="st0" d="M431.5,346.7V56.2h-51.7v342h191.6v-51.5H431.5z" style="stroke-dasharray: 1067.2; stroke-dashoffset: 1067.2; animation-delay: 0.0833333s; animation-duration: 1.18063s;"></path>
		<path class="st0" d="M764.2,57.6c-93.8,0-170.2,76.8-170.2,170.9v169.8h170.3V398c93.7-0.2,170.3-76.5,170.3-169.6
			C934.7,134.4,857.8,57.6,764.2,57.6z M882.3,228.4c-0.2,62-49.3,113.1-110.6,117c-2.5,0.2-4.9,0.3-7.4,0.3H764
			c-2.6,0-5.2-0.1-7.7-0.3H646.1V228c0-65.2,52.9-118.3,117.9-118.3S882.3,162.8,882.3,228V228.4z" style="stroke-dasharray: 1934.61; stroke-dashoffset: 1934.61; animation-delay: 0.166667s; animation-duration: 2.11224s;"></path>
		<path class="st0" d="M1102,202.2c-40.1-17.2-70.5-26.4-70.5-52.1c0-23.3,24.1-42.1,54.4-42.1c23.9,0,46.6,12.5,56.8,34.7
			l38.4-26.6c-13.5-36.2-48.6-58.8-95.6-58.8c-59.3,0-106.1,37.6-106.1,91.6c0,51.7,42.9,71.7,81.5,88.9
			c38.4,16.6,81.7,34.9,81.7,65.4c0,25.1-28,42.9-65,42.9c-31.7,0-59.1-14.7-73.8-40.5l-40.9,29.2c18.8,38,59.9,63.4,114,63.4
			c66.8,0,117.5-37.6,117.5-96.1C1194.6,250.3,1154.1,225.1,1102,202.2z" style="stroke-dasharray: 1478.85; stroke-dashoffset: 1478.85; animation-delay: 0.25s; animation-duration: 1.62129s;"></path>
		<path class="st0" d="M1444.4,108.4V57.6h-212.9v340.7h212.9v-51.5h-161.2v-96.7h124.7v-51.5h-124.7v-90.1H1444.4z" style="stroke-dasharray: 1679; stroke-dashoffset: 1679; animation-delay: 0.333333s; animation-duration: 1.83664s;"></path>
		<path class="st1" d="M1664.5,57.6c-108.2-0.2-175.6,65.3-175.6,170.8c0,104.6,67.4,169.9,175.6,169.9h97V57.6H1664.5z M1708.3,345
			h-44.2c-74.4,0-121.1-45-121.1-116.9c0-72.3,46.9-117.5,121.7-117.5h43.5V345z" style="stroke-dasharray: 1791.94; stroke-dashoffset: 1791.94; animation-delay: 0.416667s; animation-duration: 1.95834s;"></path>
		<path class="st1" d="M1799.9,56.2v343.6h51.7V56.2H1799.9z" style="stroke-dasharray: 790.6; stroke-dashoffset: 790.6; animation-delay: 0.5s; animation-duration: 0.888144s;"></path>
		<path class="st1" d="M2226.4,212.9h-155.9v47.4h102v1c0,50.3-42.5,84.8-99.1,84.8c-70.3,0-121.6-53.1-121.6-117.7
			c0-68.3,56.8-118.5,116.9-118.5c31.3,0,66,15.9,91.7,41.3l28.8-42.9c-31.1-30.3-78.5-50.3-119.9-50.5c-93.6,0-170,77-170,170.6
			c0,93.4,76,169.8,171.9,169.8c85.6,0,156.8-61.7,156.8-159.6C2227.9,229.4,2227.2,220.4,2226.4,212.9z" style="stroke-dasharray: 1925.17; stroke-dashoffset: 1925.17; animation-delay: 0.583333s; animation-duration: 2.10206s;"></path>
		<path class="st1" d="M2275.5,56.2v343.6h51.7V56.2H2275.5z" style="stroke-dasharray: 790.6; stroke-dashoffset: 790.6; animation-delay: 0.666667s; animation-duration: 0.888144s;"></path>
		<path class="st1" d="M2365.7,56.2v51.3h88.3v290.8h51.9V107.5h88.3V56.2H2365.7z" style="stroke-dasharray: 1141.2; stroke-dashoffset: 1141.2; animation-delay: 0.75s; animation-duration: 1.25951s;"></path>
		<path class="st0" d="M764.3,345.5v0.3H764c-2.6,0-5.2-0.1-7.7-0.3H764.3z" style="stroke-dasharray: 16.3079; stroke-dashoffset: 16.3079; animation-delay: 0.833333s; animation-duration: 1.47s;"></path>
		<path class="st0" d="M764.3,345.5v0.3H764c-2.6,0-5.2-0.1-7.7-0.3H764.3z" style="stroke-dasharray: 16.3079; stroke-dashoffset: 16.3079; animation-delay: 0.916667s; animation-duration: 1.47s;"></path>
	</g>
	<rect x="2594.2" y="322.5" class="st1" width="75.7" height="75.7"></rect>
</g>
</svg>