<svg width="153" height="21" viewBox="0 0 153 21" fill="none" xmlns="http://www.w3.org/2000/svg">
<path d="M10.2734 16.9734C6.87338 16.9734 3.47338 13.9734 3.47338 10.0734C3.47338 6.27336 6.77338 3.17336 10.2734 3.17336C12.1734 3.17336 13.8734 4.07336 15.2734 5.37336L16.9734 2.97335C15.0734 1.17335 12.7734 0.0733547 10.2734 0.0733547C4.87338 0.0733547 0.373375 4.57335 0.373375 9.97335C0.373375 15.3734 4.87338 19.8734 10.2734 19.8734C13.1734 19.8734 15.2734 18.6734 16.8734 16.9734L15.1734 14.5734C13.9734 15.9734 12.2734 16.9734 10.2734 16.9734Z" fill="#16085E"/>
<path d="M22.1734 16.9734V0.0733547L19.1734 0.0733547V19.9734H30.3734V16.9734H22.1734Z" fill="#16085E"/>
<path d="M41.5734 0.173355C36.0734 0.173355 31.6734 4.67336 31.6734 10.0734V19.9734H41.5734C47.0734 19.9734 51.4734 15.4734 51.4734 10.0734C51.4734 4.67336 46.9734 0.173355 41.5734 0.173355ZM48.4734 10.1734C48.4734 13.7734 45.5734 16.7734 42.0734 16.9734C41.9734 16.9734 41.7734 16.9734 41.6734 16.9734C41.4734 16.9734 41.3734 16.9734 41.1734 16.9734H34.7734V10.1734C34.7734 6.37336 37.8734 3.27336 41.6734 3.27336C45.3734 3.17336 48.4734 6.27336 48.4734 10.1734Z" fill="#16085E"/>
<path d="M61.1734 8.57336C58.8734 7.57336 57.0734 7.07336 57.0734 5.57336C57.0734 4.17336 58.4734 3.17336 60.2734 3.17336C61.6734 3.17336 62.9734 3.87336 63.5734 5.17336L65.7734 3.67336C64.9734 1.57336 62.9734 0.273355 60.1734 0.273355C56.7734 0.273355 53.9734 2.47336 53.9734 5.57336C53.9734 8.57336 56.4734 9.77335 58.6734 10.7734C60.8734 11.7734 63.4734 12.7734 63.4734 14.5734C63.4734 16.0734 61.8734 17.0734 59.6734 17.0734C57.8734 17.0734 56.2734 16.1734 55.3734 14.6734L52.9734 16.3734C54.0734 18.5734 56.4734 20.0734 59.5734 20.0734C63.4734 20.0734 66.3734 17.8734 66.3734 14.4734C66.5734 11.3734 64.2734 9.97336 61.1734 8.57336Z" fill="#16085E"/>
<path d="M81.1734 3.17336V0.173355L68.7734 0.173355V19.9734H81.1734V16.9734H71.7734V11.3734H79.0734V8.37336H71.7734V3.17336L81.1734 3.17336V3.17336Z" fill="#16085E"/>
<path d="M93.9734 0.173355C87.6734 0.173355 83.7734 3.97336 83.7734 10.0734C83.7734 16.1734 87.6734 19.9734 93.9734 19.9734H99.5734V0.173355L93.9734 0.173355ZM96.4734 16.8734H93.8734C89.5734 16.8734 86.8734 14.2734 86.8734 10.0734C86.8734 5.87336 89.5734 3.27336 93.9734 3.27336L96.4734 3.27336V16.8734Z" fill="#0000FF"/>
<path d="M101.873 0.0733547V20.0734H104.873V0.0733547L101.873 0.0733547Z" fill="#0000FF"/>
<path d="M126.673 9.27335H117.573V12.0734H123.473V12.1734C123.473 15.0734 120.973 17.0734 117.673 17.0734C113.573 17.0734 110.573 13.9734 110.573 10.1734C110.573 6.17336 113.873 3.27336 117.373 3.27336C119.173 3.27336 121.173 4.17336 122.673 5.67336L124.473 3.17336C122.673 1.37336 119.873 0.273355 117.473 0.273355C112.073 0.273355 107.573 4.77336 107.573 10.1734C107.573 15.5734 111.973 20.0734 117.573 20.0734C122.573 20.0734 126.673 16.4734 126.673 10.7734C126.773 10.1734 126.673 9.67335 126.673 9.27335Z" fill="#0000FF"/>
<path d="M129.473 0.0733547V20.0734H132.473V0.0733547L129.473 0.0733547Z" fill="#0000FF"/>
<path d="M134.773 0.0733547V3.07335L139.873 3.07335V19.9734H142.873V3.07335L147.973 3.07335V0.0733547L134.773 0.0733547Z" fill="#0000FF"/>
<path d="M152.427 15.6076H148.027V20.0076H152.427V15.6076Z" fill="#0000FF"/>
</svg>
