<svg width="153" height="20" viewBox="0 0 153 20" fill="none" xmlns="http://www.w3.org/2000/svg">
<path d="M9.90004 16.9C6.50004 16.9 3.10004 13.9 3.10004 10C3.10004 6.2 6.40004 3.1 9.90004 3.1C11.8 3.1 13.5 4 14.9 5.3L16.6 2.9C14.7 1.1 12.4 -1.83588e-07 9.90004 -2.92866e-07C4.50004 -5.28908e-07 3.03209e-05 4.5 3.00848e-05 9.9C2.98488e-05 15.3 4.50004 19.8 9.90004 19.8C12.8 19.8 14.9 18.6 16.5 16.9L14.8 14.5C13.6 15.9 11.9 16.9 9.90004 16.9Z" fill="white"/>
<path d="M21.8 16.9L21.8 -3.58433e-07L18.8 -4.89567e-07L18.8 19.9L30 19.9L30 16.9L21.8 16.9Z" fill="white"/>
<path d="M41.2 0.100006C35.7 0.100005 31.3 4.60001 31.3 10L31.3 19.9L41.2 19.9C46.7 19.9 51.1 15.4 51.1 10C51.1 4.60001 46.6 0.100006 41.2 0.100006ZM48.1 10.1C48.1 13.7 45.2 16.7 41.7 16.9C41.6 16.9 41.4 16.9 41.3 16.9C41.1 16.9 41 16.9 40.8 16.9L34.4 16.9L34.4 10.1C34.4 6.30001 37.5 3.20001 41.3 3.20001C45 3.10001 48.1 6.20001 48.1 10.1Z" fill="white"/>
<path d="M60.8 8.50001C58.5 7.50001 56.7 7.00001 56.7 5.50001C56.7 4.10001 58.1 3.10001 59.9 3.10001C61.3 3.10001 62.6 3.80001 63.2 5.10001L65.4 3.60001C64.6 1.50001 62.6 0.200012 59.8 0.200012C56.4 0.200012 53.6 2.40001 53.6 5.50001C53.6 8.50001 56.1 9.70001 58.3 10.7C60.5 11.7 63.1 12.7 63.1 14.5C63.1 16 61.5 17 59.3 17C57.5 17 55.9 16.1 55 14.6L52.6 16.3C53.7 18.5 56.1 20 59.2 20C63.1 20 66 17.8 66 14.4C66.2 11.3 63.9 9.90001 60.8 8.50001Z" fill="white"/>
<path d="M80.8 3.10001L80.8 0.100006L68.4 0.100006L68.4 19.9L80.8 19.9L80.8 16.9L71.4 16.9L71.4 11.3L78.7 11.3L78.7 8.30001L71.4 8.30001L71.4 3.10001L80.8 3.10001V3.10001Z" fill="white"/>
<path d="M93.6 0.100006C87.3 0.100006 83.4 3.90001 83.4 10C83.4 16.1 87.3 19.9 93.6 19.9L99.2 19.9L99.2 0.100006L93.6 0.100006ZM96.1 16.8L93.5 16.8C89.2 16.8 86.5 14.2 86.5 10C86.5 5.80001 89.2 3.20001 93.6 3.20001L96.1 3.20001L96.1 16.8Z" fill="white"/>
<path d="M101.5 -1.31134e-07L101.5 20L104.5 20L104.5 0L101.5 -1.31134e-07Z" fill="white"/>
<path d="M126.3 9.20001L117.2 9.20001L117.2 12L123.1 12L123.1 12.1C123.1 15 120.6 17 117.3 17C113.2 17 110.2 13.9 110.2 10.1C110.2 6.10001 113.5 3.20001 117 3.20001C118.8 3.20001 120.8 4.10001 122.3 5.60001L124.1 3.10001C122.3 1.30001 119.5 0.200012 117.1 0.200012C111.7 0.200012 107.2 4.70001 107.2 10.1C107.2 15.5 111.6 20 117.2 20C122.2 20 126.3 16.4 126.3 10.7C126.4 10.1 126.3 9.60001 126.3 9.20001Z" fill="white"/>
<path d="M129.1 -1.31134e-07L129.1 20L132.1 20L132.1 0L129.1 -1.31134e-07Z" fill="white"/>
<path d="M134.4 -5.7699e-07L134.4 3L139.5 3L139.5 19.9L142.5 19.9L142.5 3L147.6 3L147.6 0L134.4 -5.7699e-07Z" fill="white"/>
<path d="M152.053 15.5342L147.653 15.5342L147.653 19.9342L152.053 19.9342L152.053 15.5342Z" fill="white"/>
</svg>
